HIERARCHY
ROOT Hips
{
  OFFSET 1.52476 92.3955 114.12
  CHANNELS 6 Xposition Yposition Zposition Zrotation Xrotation Yrotation
  JOINT ToSpine
  {
    OFFSET -2.69724 7.43032 -0.144315
    CHANNELS 3 Zrotation Xrotation Yrotation
    JOINT Spine
    {
      OFFSET -0.0310711 10.7595 1.96963
      CHANNELS 3 Zrotation Xrotation Yrotation
      JOINT Spine1
      {
        OFFSET 13.1342 3.43533 0.764692
        CHANNELS 3 Zrotation Xrotation Yrotation
        JOINT Neck
        {
          OFFSET 29.8703 7.82586 -0.130764
          CHANNELS 3 Zrotation Xrotation Yrotation
          JOINT Head
          {
            OFFSET 9.52751 0.295786 -0.907742
            CHANNELS 3 Zrotation Xrotation Yrotation
            End Site
            {
              OFFSET 16.4037 0.713936 2.7358
            }
          }
        }
        JOINT LeftShoulder
        {
          OFFSET 27.5574 4.95586 2.47156
          CHANNELS 3 Zrotation Xrotation Yrotation
          JOINT LeftArm
          {
            OFFSET 1.20734 -0.998971 20.1238
            CHANNELS 3 Zrotation Xrotation Yrotation
            JOINT LeftForeArm
            {
              OFFSET 26.8049 -0.0536703 -0.155908
              CHANNELS 3 Zrotation Xrotation Yrotation
              JOINT LeftHand
              {
                OFFSET 26.6817 0 0.320147
                CHANNELS 3 Zrotation Xrotation Yrotation
                End Site
                {
                  OFFSET 18.6119 0 0.382219
                }
              }
            }
          }
        }
        JOINT RightShoulder
        {
          OFFSET 27.5927 4.71444 -2.65209
          CHANNELS 3 Zrotation Xrotation Yrotation
          JOINT RightArm
          {
            OFFSET 2.83739 -1.17114 -18.7564
            CHANNELS 3 Zrotation Xrotation Yrotation
            JOINT RightForeArm
            {
              OFFSET 28.839 -0.0548439 1.22491
              CHANNELS 3 Zrotation Xrotation Yrotation
              JOINT RightHand
              {
                OFFSET 26.5114 0 -0.101894
                CHANNELS 3 Zrotation Xrotation Yrotation
                End Site
                {
                  OFFSET 18.2168 0 0
                }
              }
            }
          }
        }
      }
    }
  }
  JOINT LeftUpLeg
  {
    OFFSET -4.76168 -1.9167 -10.2353
    CHANNELS 3 Zrotation Xrotation Yrotation
    JOINT LeftLeg
    {
      OFFSET 2.55951 -42.0585 -8.02213
      CHANNELS 3 Zrotation Xrotation Yrotation
      JOINT LeftFoot
      {
        OFFSET 3.16357 -42.5282 -3.95426
        CHANNELS 3 Zrotation Xrotation Yrotation
        JOINT LeftToeBase
        {
          OFFSET 0.346054 -6.02161 12.8035
          CHANNELS 3 Zrotation Xrotation Yrotation
          End Site
          {
            OFFSET 0.134235 -1.35082 5.13018
          }
        }
      }
    }
  }
  JOINT RightUpLeg
  {
    OFFSET -4.94151 -1.41743 10.6446
    CHANNELS 3 Zrotation Xrotation Yrotation
    JOINT RightLeg
    {
      OFFSET -2.56294 -42.0364 -7.94377
      CHANNELS 3 Zrotation Xrotation Yrotation
      JOINT RightFoot
      {
        OFFSET -3.0952 -42.555 -4.02241
        CHANNELS 3 Zrotation Xrotation Yrotation
        JOINT RightToeBase
        {
          OFFSET -0.0828122 -6.13587 12.8035
          CHANNELS 3 Zrotation Xrotation Yrotation
          End Site
          {
            OFFSET -0.131328 -1.35082 5.13018
          }
        }
      }
    }
  }
}
MOTION
Frames:	13
Frame Time:	0.0333333
3.56035 94.1454 112.911 62.5813 -49.3753 -21.2011 -70.1915 0 88.8779 70.573 72.9426 14.757 3.68049 22.3213 5.28307 -118.426 28.9543 157.519 -164.388 73.672 -166.7 1.01681 -10.6716 -19.6813 -63.3593 47.0094 -128.213 12.6622 -4.48281 -108.322 -0.527053 0.0123002 0.851785 -1.23322 6.34424 34.2901 -134.87 -25.3821 70.8049 11.7715 6.24638 117.124 1.03849 0.0465636 3.46154 -49.3191 6.29397 88.9093 -2.7408 38.9596 -8.80072 0.923137 -13.8409 -1.1987 2.14933 -8.02649 13.2465 -46.8394 -13.1941 78.963 1.72766 23.2552 -4.35117 -3.97677 2.91025 0.538351 0.887165 -7.51703 0.129998 
3.59489 94.1449 112.916 62.5675 -49.456 -21.2704 -70.1915 0 88.8779 70.7098 72.9332 14.6603 3.69032 22.3368 5.1626 -118.307 29.1246 157.589 -165.395 73.8442 -165.34 1.01235 -10.7131 -19.824 -63.6586 47.0137 -127.813 12.1069 -4.3478 -108.592 -0.544976 0.0121877 0.961341 -1.26315 6.39223 34.6065 -134.605 -25.0837 71.0877 11.5382 6.13549 117.179 1.00545 0.046529 3.40312 -49.4209 6.2321 88.9071 -2.77647 38.9178 -9.19974 0.792346 -13.8799 -1.20072 2.07185 -8.07555 14.1116 -46.8328 -13.2418 78.9612 1.71028 23.2762 -4.35714 -4.04503 3.05318 0.542942 0.966703 -8.0891 0.0505889 
3.61799 94.1666 112.945 62.442 -49.4447 -21.4611 -70.1915 0 88.8779 69.6811 72.8426 15.5289 3.97171 22.2796 5.25091 -118.183 29.49 157.534 -167.068 74.2324 -163.296 0.99912 -10.8355 -19.994 -63.7471 47.2533 -127.374 12.2296 -4.45596 -108.846 -0.529133 0.0122868 0.964946 -1.31264 6.57049 34.776 -134.174 -24.8852 71.4101 10.3501 5.60814 117.641 0.888549 0.0464009 3.3215 -49.3909 6.17924 89.0274 -2.78906 38.8864 -9.3577 0.634155 -14.2191 -1.2257 1.65614 -7.52128 14.5973 -46.725 -13.3094 78.9641 1.70924 23.3174 -3.99832 -4.08938 3.06136 0.549587 1.06331 -8.04951 -1.02646 
3.68796 94.1789 113.017 62.9876 -49.7493 -20.8549 -70.1915 0 88.8779 71.3916 72.9192 14.0978 4.05899 22.1827 5.28299 -118.557 29.968 158.444 -168.85 74.3549 -161.566 1.00373 -10.7821 -20.3858 -63.8571 47.0126 -126.974 14.1553 -5.22053 -108.983 -0.488077 0.0125435 1.04982 -1.32749 6.76829 34.3666 -134.152 -25.3532 71.2175 10.959 5.98467 117.815 0.931066 0.046451 3.27322 -49.9144 6.49186 89.1402 -2.82673 38.9767 -9.64295 0.365069 -14.6805 -1.26076 1.49974 -7.34343 14.9119 -47.4145 -12.9847 78.9462 1.6248 22.9796 -4.25138 -3.81555 3.00892 0.509165 0.925102 -7.69336 -0.0142136 
3.68843 94.1893 113.042 63.0062 -49.6883 -20.8247 -70.1915 0 88.8779 71.4781 72.8614 14.1302 4.19701 22.1707 4.9812 -118.431 29.9267 158.359 -169.351 74.3558 -161.214 1.02542 -10.5819 -20.0192 -63.8165 46.8713 -127.352 13.1674 -4.91281 -109.236 -0.480092 0.0125936 1.01244 -1.30146 6.60221 34.5385 -133.927 -25.41 71.6481 11.2833 6.17307 117.851 0.949716 0.0464738 3.23446 -49.928 6.5628 89.2237 -2.81101 38.8876 -9.5794 0.374518 -14.5299 -1.24911 1.55902 -7.32261 14.3823 -47.3761 -12.9704 78.9346 1.62155 23.11 -3.78401 -4.15008 3.19084 0.553577 1.12821 -8.29742 -1.45289 
3.70726 94.1838 113.061 63.0443 -49.6269 -20.7705 -70.1915 0 88.8779 71.7876 72.9389 13.611 3.9427 22.1213 5.30054 -118.249 29.9881 158.252 -169.073 74.4673 -161.418 1.02319 -10.6038 -20.0993 -63.9968 46.9464 -127.351 13.6555 -5.16093 -109.45 -0.50248 0.0124533 1.0771 -1.28744 6.53318 34.5677 -133.779 -25.1723 71.8958 11.4522 6.31303 118.025 0.94183 0.0464693 3.13222 -49.9004 6.55499 89.2132 -2.83726 38.9457 -9.78211 0.647215 -14.453 -1.24331 1.65604 -7.55759 14.7716 -47.3918 -12.9862 78.9486 1.58863 23.1384 -4.45119 -4.11399 2.96536 0.557599 0.965822 -7.97717 -0.0837206 
3.73695 94.2008 113.071 63.0786 -49.5421 -20.7158 -70.1915 0 88.8779 71.817 72.8962 13.5265 4.00456 22.0691 5.30475 -118.442 30.0292 158.073 -168.413 74.5377 -162.222 1.04128 -10.433 -19.9909 -63.9188 46.9747 -127.672 13.1382 -4.96577 -109.474 -0.510784 0.0124014 1.05988 -1.26321 6.45145 34.4696 -133.714 -25.4542 71.9317 11.73 6.48678 118.093 0.989289 0.0465185 3.2336 -49.94 6.46962 89.0818 -2.78528 38.8312 -9.38244 0.583248 -14.5581 -1.25134 1.52999 -7.24104 14.2174 -47.4846 -12.9525 79.0034 1.50892 23.0307 -4.50145 -3.70647 2.78107 0.502379 0.902662 -7.39197 -0.148358 
3.75731 94.2002 113.112 62.9765 -49.4437 -20.6432 -70.1915 0 88.8779 71.2048 72.7501 14.3909 4.41715 22.0453 5.01349 -118.908 30.0618 157.96 -167.112 74.5409 -163.765 1.05962 -10.2476 -19.7359 -63.8482 46.9758 -127.878 12.6096 -4.71691 -109.305 -0.489413 0.0125355 0.940049 -1.2348 6.30807 34.5167 -133.554 -25.7151 72.2504 11.2915 6.23574 118.073 0.95 0.0464746 3.22254 -49.7998 6.62983 89.0468 -2.79197 38.8968 -9.38016 0.486208 -14.6289 -1.2568 1.46443 -7.0745 13.9303 -47.5656 -12.8697 78.9255 1.67294 22.8541 -4.15936 -4.00358 3.08841 0.534927 1.10988 -8.08918 -1.48154 
3.77007 94.2283 113.16 62.9885 -49.3881 -20.6002 -70.1915 0 88.8779 71.173 72.7064 14.5116 4.50789 22.0685 4.82563 -119.171 29.9794 157.961 -167.247 74.4337 -163.43 1.06459 -10.2004 -19.7572 -63.6258 47.1088 -127.765 13.1782 -4.82049 -108.879 -0.508899 0.0124134 1.00569 -1.23671 6.2446 34.7603 -133.494 -25.6691 72.4162 11.6677 6.34166 117.686 0.987986 0.0465157 3.26275 -49.9037 6.49405 88.7208 -2.8153 38.7609 -9.75917 0.539108 -14.5243 -1.24869 1.51374 -7.3833 15.0015 -47.7311 -12.7777 79.0176 1.56913 22.568 -5.05003 -3.82655 2.88938 0.515994 0.838342 -7.38603 0.450473 
3.78853 94.2342 113.179 62.99 -49.3636 -20.5941 -70.1915 0 88.8779 70.746 72.7789 14.8997 4.62058 22.1369 4.96014 -119.292 30.0813 157.967 -167.376 74.5126 -163.124 1.04615 -10.3777 -19.9875 -63.6298 47.105 -127.191 13.4569 -4.88985 -108.749 -0.499929 0.0124693 1.05212 -1.25418 6.31797 34.7772 -133.504 -25.515 72.3979 11.892 6.44114 117.598 1.01286 0.0465426 3.28986 -49.9179 6.47625 88.6995 -2.80547 38.7375 -9.6873 0.397035 -14.5133 -1.24776 1.54323 -7.42571 14.9788 -47.7459 -12.8019 78.9862 1.58913 22.5705 -4.87659 -3.65002 2.95906 0.485783 0.920608 -7.68979 0.0463855 
3.79782 94.2139 113.18 63.0116 -49.1976 -20.4911 -70.1915 0 88.8779 70.4051 72.9649 14.9695 4.54049 22.1707 5.57287 -119.545 30.3854 157.885 -167.18 74.7858 -163.352 1.01705 -10.6434 -20.2667 -63.5692 47.0225 -126.984 13.6795 -4.96147 -108.706 -0.489354 0.0125405 1.01297 -1.22486 6.30054 34.3704 -133.7 -25.4777 72.1578 11.8382 6.47683 117.835 1.00196 0.0465319 3.25436 -49.7237 6.55667 88.7418 -2.8077 38.908 -9.52432 0.495194 -14.5852 -1.25338 1.45022 -7.14506 14.3594 -47.6893 -12.8142 78.9466 1.64095 22.7362 -4.37152 -3.9853 3.07873 0.532803 1.13006 -8.17304 -1.57516 
3.82304 94.1877 113.194 63.1896 -49.0468 -20.388 -70.1915 0 88.8779 70.9135 72.8599 14.5075 4.5517 22.0745 5.34368 -119.753 30.4928 158.386 -169.245 74.7161 -161.219 1.02962 -10.5282 -20.3796 -63.5849 47.0969 -126.574 13.5049 -4.93677 -108.854 -0.455311 0.0127309 1.09489 -1.24449 6.42393 34.2668 -133.559 -25.8851 72.3646 12.2645 6.72535 117.872 1.02933 0.0465644 3.2174 -49.7827 6.37012 88.5618 -2.80268 38.894 -9.48889 0.649324 -14.6829 -1.2609 1.48811 -7.20326 14.3507 -47.5873 -13.0651 78.8639 1.61236 23.17 -5.21704 -3.66466 2.5349 0.506805 0.825305 -7.42063 0.644334 
3.85329 94.1656 113.186 63.3104 -48.8397 -20.2763 -70.1915 0 88.8779 70.503 72.9064 14.7121 4.60039 22.0253 5.66663 -119.717 30.8242 158.518 -170.226 74.9803 -159.921 0.999908 -10.7916 -20.6385 -63.9038 46.8337 -126.006 12.8044 -4.7528 -109.157 -0.43241 0.012494 1.1023 -1.217 6.41862 33.8776 -133.645 -26.0591 72.4193 12.0584 6.69642 118.172 0.9883 0.0466878 3.11015 -49.701 6.22407 88.3282 -2.82901 38.9983 -9.64664 0.418924 -14.8254 -1.27211 1.39581 -7.12367 14.6496 -47.4622 -13.2373 78.7501 1.64838 23.5564 -4.71172 -3.593 2.65745 0.490592 1.04231 -8.06676 -0.797228 
